<svg width="47" height="29" viewBox="0 0 47 29" fill="none" xmlns="http://www.w3.org/2000/svg">
<path d="M19.3772 13.4038C19.3772 13.4038 23.7104 13.0746 23.7104 7.88965C23.7104 2.70901 20.7715 0.155195 16.2794 0.155195L0.890625 0.130859V28.7611H16.6373C16.6373 28.7611 24.5106 29.0102 24.5106 20.172C24.5106 20.172 25.0889 13.4038 19.3772 13.4038ZM6.61667 4.42539H14.49C14.49 4.42539 17.1841 4.46977 17.1841 7.96266C17.1841 11.583 14.49 11.583 14.49 11.583H6.61667V4.42539ZM15.2057 24.4666H6.61667V15.8775H15.2057C15.2057 15.8775 19.5003 15.9219 19.5003 20.172C19.5003 24.4222 15.8242 24.4666 15.2057 24.4666Z" fill="#111111"/>
<path d="M36.6788 7.28906C25.9238 7.28906 25.9424 18.0254 25.9424 18.0254C25.9424 18.0254 25.2267 28.7617 36.6788 28.7617C36.6788 28.7617 46.6993 28.7617 46.6993 20.1727H40.9733C40.9733 20.1727 40.9733 24.4672 36.6788 24.4672C36.6788 24.4672 32.3842 24.4672 32.3842 18.7412C32.3842 18.7412 43.8363 18.7412 46.6993 18.7412C46.6993 15.8781 46.6993 7.28906 36.6788 7.28906ZM32.3842 15.8781C32.3842 15.8781 32.2898 11.5836 36.6788 11.5836C41.0663 11.5836 40.9733 15.8781 40.9733 15.8781H32.3842Z" fill="#111111"/>
<path d="M42.4052 2.99414H30.9531V5.85716H42.4052V2.99414Z" fill="#111111"/>
</svg>
